<?xml version="1.0" encoding="UTF-8" standalone="no"?>
<!DOCTYPE svg PUBLIC "-//W3C//DTD SVG 1.1//EN"
 "http://www.w3.org/Graphics/SVG/1.1/DTD/svg11.dtd">
<!-- Generated by graphviz version 14.1.5 (20260411.2331)
 -->
<!-- Pages: 1 -->
<svg width="786pt" height="1267pt"
 viewBox="0.00 0.00 786.00 1267.00" xmlns="http://www.w3.org/2000/svg" xmlns:xlink="http://www.w3.org/1999/xlink">
<g id="graph0" class="graph" transform="scale(1 1) rotate(0) translate(4 1263.27)">
<polygon fill="white" stroke="none" points="-4,4 -4,-1263.27 781.75,-1263.27 781.75,4 -4,4"/>
<!-- 0 -->
<g id="node1" class="node">
<title>0</title>
<polygon fill="none" stroke="black" points="771,-1125 708.5,-1125 708.5,-1089 771,-1089 771,-1125"/>
<text xml:space="preserve" text-anchor="middle" x="739.75" y="-1101.95" font-family="Times,serif" font-size="14.00">rskit&#45;util</text>
</g>
<!-- 1 -->
<g id="node2" class="node">
<title>1</title>
<polygon fill="none" stroke="black" points="640.62,-888 586.38,-888 586.38,-852 640.62,-852 640.62,-888"/>
<text xml:space="preserve" text-anchor="middle" x="613.5" y="-864.95" font-family="Times,serif" font-size="14.00">rskit&#45;fs</text>
</g>
<!-- 2 -->
<g id="node3" class="node">
<title>2</title>
<polygon fill="none" stroke="black" points="777.75,-518 701.75,-518 701.75,-482 777.75,-482 777.75,-518"/>
<text xml:space="preserve" text-anchor="middle" x="739.75" y="-494.95" font-family="Times,serif" font-size="14.00">rskit&#45;errors</text>
</g>
<!-- 1&#45;&gt;2 -->
<g id="edge1" class="edge">
<title>1&#45;&gt;2</title>
<path fill="none" stroke="black" d="M641.11,-861.32C650.17,-857.13 659.56,-851.18 665.75,-843 703.42,-793.22 727.58,-603.07 735.71,-529.4"/>
<polygon fill="black" stroke="black" points="739.16,-530.05 736.75,-519.73 732.2,-529.3 739.16,-530.05"/>
</g>
<!-- 3 -->
<g id="node4" class="node">
<title>3</title>
<polygon fill="none" stroke="black" points="78.12,-369 24.12,-369 24.12,-333 78.12,-333 78.12,-369"/>
<text xml:space="preserve" text-anchor="middle" x="51.12" y="-345.95" font-family="Times,serif" font-size="14.00">rskit</text>
</g>
<!-- 14 -->
<g id="node15" class="node">
<title>14</title>
<polygon fill="none" stroke="black" points="661.62,-1056 565.38,-1056 565.38,-1020 661.62,-1020 661.62,-1056"/>
<text xml:space="preserve" text-anchor="middle" x="613.5" y="-1032.95" font-family="Times,serif" font-size="14.00">rskit&#45;resilience</text>
</g>
<!-- 3&#45;&gt;14 -->
<g id="edge4" class="edge">
<title>3&#45;&gt;14</title>
<path fill="none" stroke="black" d="M58.04,-369.34C68.44,-402.21 90.03,-473.46 102.25,-535 143.47,-742.57 86.21,-874.37 269,-981 358.46,-1033.19 482.04,-1041.05 553.99,-1040.55"/>
<polygon fill="black" stroke="black" points="553.62,-1044.05 563.57,-1040.42 553.53,-1037.05 553.62,-1044.05"/>
</g>
<!-- 23 -->
<g id="node24" class="node">
<title>23</title>
<polygon fill="none" stroke="black" points="363,-128 280.25,-128 280.25,-92 363,-92 363,-128"/>
<text xml:space="preserve" text-anchor="middle" x="321.62" y="-104.95" font-family="Times,serif" font-size="14.00">rskit&#45;worker</text>
</g>
<!-- 3&#45;&gt;23 -->
<g id="edge5" class="edge">
<title>3&#45;&gt;23</title>
<path fill="none" stroke="black" d="M56.63,-332.58C66.01,-297.98 90.8,-222.93 138.25,-180 174.95,-146.8 229.08,-128.7 268.83,-119.28"/>
<polygon fill="black" stroke="black" points="269.43,-122.73 278.42,-117.12 267.9,-115.9 269.43,-122.73"/>
</g>
<!-- 24 -->
<g id="node25" class="node">
<title>24</title>
<polygon fill="none" stroke="black" points="233,-679 138.25,-679 138.25,-643 233,-643 233,-679"/>
<text xml:space="preserve" text-anchor="middle" x="185.62" y="-655.95" font-family="Times,serif" font-size="14.00">rskit&#45;bootstrap</text>
</g>
<!-- 3&#45;&gt;24 -->
<g id="edge2" class="edge">
<title>3&#45;&gt;24</title>
<path fill="none" stroke="black" d="M60.02,-369.46C82.25,-421.48 145.52,-569.5 172.35,-632.29"/>
<polygon fill="black" stroke="black" points="169.03,-633.42 176.18,-641.24 175.47,-630.67 169.03,-633.42"/>
</g>
<!-- 32 -->
<g id="node33" class="node">
<title>32</title>
<polygon fill="none" stroke="black" points="657.5,-342 569.5,-342 569.5,-306 657.5,-306 657.5,-342"/>
<text xml:space="preserve" text-anchor="middle" x="613.5" y="-318.95" font-family="Times,serif" font-size="14.00">rskit&#45;pipeline</text>
</g>
<!-- 3&#45;&gt;32 -->
<g id="edge3" class="edge">
<title>3&#45;&gt;32</title>
<path fill="none" stroke="black" d="M78.51,-334.22C118.07,-310.18 195.9,-267.04 269,-251 380.65,-226.5 417.37,-235.22 525.25,-273 543.45,-279.37 562.11,-289.68 577.47,-299.36"/>
<polygon fill="black" stroke="black" points="575.5,-302.25 585.79,-304.76 579.31,-296.38 575.5,-302.25"/>
</g>
<!-- 4 -->
<g id="node5" class="node">
<title>4</title>
<polygon fill="none" stroke="black" points="88,-580 14.25,-580 14.25,-544 88,-544 88,-580"/>
<text xml:space="preserve" text-anchor="middle" x="51.12" y="-556.95" font-family="Times,serif" font-size="14.00">rskit&#45;agent</text>
</g>
<!-- 8 -->
<g id="node9" class="node">
<title>8</title>
<polygon fill="none" stroke="black" points="503.5,-572 432,-572 432,-536 503.5,-536 503.5,-572"/>
<text xml:space="preserve" text-anchor="middle" x="467.75" y="-548.95" font-family="Times,serif" font-size="14.00">rskit&#45;hook</text>
</g>
<!-- 4&#45;&gt;8 -->
<g id="edge6" class="edge">
<title>4&#45;&gt;8</title>
<path fill="none" stroke="black" d="M88.19,-561.3C163.39,-559.85 336.81,-556.51 420.25,-554.9"/>
<polygon fill="black" stroke="black" points="420.2,-558.4 430.13,-554.71 420.07,-551.4 420.2,-558.4"/>
</g>
<!-- 9 -->
<g id="node10" class="node">
<title>9</title>
<polygon fill="none" stroke="black" points="217.25,-365 154,-365 154,-329 217.25,-329 217.25,-365"/>
<text xml:space="preserve" text-anchor="middle" x="185.62" y="-341.95" font-family="Times,serif" font-size="14.00">rskit&#45;llm</text>
</g>
<!-- 4&#45;&gt;9 -->
<g id="edge7" class="edge">
<title>4&#45;&gt;9</title>
<path fill="none" stroke="black" d="M56.53,-543.62C66,-507.37 91.34,-425.73 138.25,-374 140.17,-371.89 142.29,-369.89 144.54,-368.02"/>
<polygon fill="black" stroke="black" points="146.42,-370.98 152.47,-362.28 142.31,-365.31 146.42,-370.98"/>
</g>
<!-- 4&#45;&gt;14 -->
<g id="edge8" class="edge">
<title>4&#45;&gt;14</title>
<path fill="none" stroke="black" d="M68.91,-580.33C80.4,-594.04 94.86,-613.84 102.25,-634 131.44,-713.64 76.97,-955.35 138.25,-1014 196.19,-1069.45 440.01,-1054.48 553.69,-1044.1"/>
<polygon fill="black" stroke="black" points="553.79,-1047.6 563.42,-1043.19 553.14,-1040.63 553.79,-1047.6"/>
</g>
<!-- 5 -->
<g id="node6" class="node">
<title>5</title>
<polygon fill="none" stroke="black" points="494.88,-518 440.62,-518 440.62,-482 494.88,-482 494.88,-518"/>
<text xml:space="preserve" text-anchor="middle" x="467.75" y="-494.95" font-family="Times,serif" font-size="14.00">rskit&#45;ai</text>
</g>
<!-- 5&#45;&gt;2 -->
<g id="edge9" class="edge">
<title>5&#45;&gt;2</title>
<path fill="none" stroke="black" d="M495.36,-488.36C504.96,-483.88 515.76,-478.52 525.25,-473 542.09,-463.21 542.66,-453.82 561.25,-448 605.57,-434.12 621.51,-433.85 665.75,-448 682.45,-453.34 698.59,-464.05 711.42,-474.37"/>
<polygon fill="black" stroke="black" points="709.09,-476.98 718.99,-480.76 713.61,-471.63 709.09,-476.98"/>
</g>
<!-- 6 -->
<g id="node7" class="node">
<title>6</title>
<polygon fill="none" stroke="black" points="655.62,-834 571.38,-834 571.38,-798 655.62,-798 655.62,-834"/>
<text xml:space="preserve" text-anchor="middle" x="613.5" y="-810.95" font-family="Times,serif" font-size="14.00">rskit&#45;version</text>
</g>
<!-- 5&#45;&gt;6 -->
<g id="edge10" class="edge">
<title>5&#45;&gt;6</title>
<path fill="none" stroke="black" d="M495.16,-506.58C506.15,-510.66 518,-517.08 525.25,-527 594.57,-621.92 493.8,-692.74 561.25,-789 561.75,-789.71 562.27,-790.4 562.82,-791.08"/>
<polygon fill="black" stroke="black" points="560.26,-793.48 569.89,-797.9 565.12,-788.44 560.26,-793.48"/>
</g>
<!-- 6&#45;&gt;0 -->
<g id="edge11" class="edge">
<title>6&#45;&gt;0</title>
<path fill="none" stroke="black" d="M656.02,-833.79C659.64,-836.49 662.98,-839.55 665.75,-843 722.47,-913.45 735.2,-1024.93 738,-1077.59"/>
<polygon fill="black" stroke="black" points="734.49,-1077.43 738.43,-1087.27 741.48,-1077.13 734.49,-1077.43"/>
</g>
<!-- 7 -->
<g id="node8" class="node">
<title>7</title>
<polygon fill="none" stroke="black" points="520.38,-410 415.12,-410 415.12,-374 520.38,-374 520.38,-410"/>
<text xml:space="preserve" text-anchor="middle" x="467.75" y="-386.95" font-family="Times,serif" font-size="14.00">rskit&#45;component</text>
</g>
<!-- 7&#45;&gt;2 -->
<g id="edge12" class="edge">
<title>7&#45;&gt;2</title>
<path fill="none" stroke="black" d="M485.05,-373.8C508.92,-347.37 551.6,-301.07 561.25,-297 604.04,-278.94 627.76,-270.29 665.75,-297 722.14,-336.65 735.18,-424.22 738.06,-470.3"/>
<polygon fill="black" stroke="black" points="734.55,-470.27 738.53,-480.09 741.54,-469.93 734.55,-470.27"/>
</g>
<!-- 8&#45;&gt;2 -->
<g id="edge13" class="edge">
<title>8&#45;&gt;2</title>
<path fill="none" stroke="black" d="M503.79,-539.98C511.21,-536.28 518.75,-531.92 525.25,-527 544.58,-512.36 539.16,-496 561.25,-486 602.08,-467.51 653.6,-474.46 690.61,-483.96"/>
<polygon fill="black" stroke="black" points="689.57,-487.3 700.14,-486.57 691.41,-480.55 689.57,-487.3"/>
</g>
<!-- 10 -->
<g id="node11" class="node">
<title>10</title>
<polygon fill="none" stroke="black" points="512.88,-174 422.62,-174 422.62,-138 512.88,-138 512.88,-174"/>
<text xml:space="preserve" text-anchor="middle" x="467.75" y="-150.95" font-family="Times,serif" font-size="14.00">rskit&#45;provider</text>
</g>
<!-- 9&#45;&gt;10 -->
<g id="edge14" class="edge">
<title>9&#45;&gt;10</title>
<path fill="none" stroke="black" d="M193.48,-328.72C204.88,-300.77 230.38,-247.55 269,-218 310.49,-186.25 368.52,-170.58 410.99,-162.95"/>
<polygon fill="black" stroke="black" points="411.48,-166.42 420.76,-161.3 410.32,-159.51 411.48,-166.42"/>
</g>
<!-- 11 -->
<g id="node12" class="node">
<title>11</title>
<polygon fill="none" stroke="black" points="354.38,-442 288.88,-442 288.88,-406 354.38,-406 354.38,-442"/>
<text xml:space="preserve" text-anchor="middle" x="321.62" y="-418.95" font-family="Times,serif" font-size="14.00">rskit&#45;tool</text>
</g>
<!-- 9&#45;&gt;11 -->
<g id="edge15" class="edge">
<title>9&#45;&gt;11</title>
<path fill="none" stroke="black" d="M217.66,-364.83C222.81,-367.86 228.07,-370.99 233,-374 249.21,-383.89 252.57,-387.48 269,-397 272.11,-398.8 275.34,-400.62 278.62,-402.42"/>
<polygon fill="black" stroke="black" points="276.65,-405.34 287.11,-407 279.97,-399.17 276.65,-405.34"/>
</g>
<!-- 10&#45;&gt;2 -->
<g id="edge16" class="edge">
<title>10&#45;&gt;2</title>
<path fill="none" stroke="black" d="M513.15,-150.22C557.57,-147.09 624.97,-149.93 665.75,-188 707.08,-226.58 728.79,-400.55 735.99,-470.62"/>
<polygon fill="black" stroke="black" points="732.47,-470.59 736.95,-480.19 739.44,-469.89 732.47,-470.59"/>
</g>
<!-- 11&#45;&gt;5 -->
<g id="edge17" class="edge">
<title>11&#45;&gt;5</title>
<path fill="none" stroke="black" d="M354.4,-442.42C370.92,-451.82 391.52,-463.3 410.25,-473 416.59,-476.28 423.39,-479.65 430,-482.86"/>
<polygon fill="black" stroke="black" points="428.24,-485.89 438.77,-487.06 431.26,-479.58 428.24,-485.89"/>
</g>
<!-- 11&#45;&gt;7 -->
<g id="edge18" class="edge">
<title>11&#45;&gt;7</title>
<path fill="none" stroke="black" d="M354.61,-416.9C369.1,-413.68 386.76,-409.76 403.74,-405.99"/>
<polygon fill="black" stroke="black" points="404.28,-409.46 413.28,-403.87 402.76,-402.62 404.28,-409.46"/>
</g>
<!-- 12 -->
<g id="node13" class="node">
<title>12</title>
<polygon fill="none" stroke="black" points="525.25,-318 410.25,-318 410.25,-282 525.25,-282 525.25,-318"/>
<text xml:space="preserve" text-anchor="middle" x="467.75" y="-294.95" font-family="Times,serif" font-size="14.00">rskit&#45;observability</text>
</g>
<!-- 11&#45;&gt;12 -->
<g id="edge19" class="edge">
<title>11&#45;&gt;12</title>
<path fill="none" stroke="black" d="M354.87,-410.84C361.79,-407.05 368.68,-402.44 374.25,-397 397.88,-373.93 387.01,-355.46 410.25,-332 412.71,-329.52 415.4,-327.17 418.23,-324.95"/>
<polygon fill="black" stroke="black" points="420.23,-327.83 426.41,-319.22 416.21,-322.1 420.23,-327.83"/>
</g>
<!-- 13 -->
<g id="node14" class="node">
<title>13</title>
<polygon fill="none" stroke="black" points="656.38,-396 570.62,-396 570.62,-360 656.38,-360 656.38,-396"/>
<text xml:space="preserve" text-anchor="middle" x="613.5" y="-372.95" font-family="Times,serif" font-size="14.00">rskit&#45;schema</text>
</g>
<!-- 11&#45;&gt;13 -->
<g id="edge20" class="edge">
<title>11&#45;&gt;13</title>
<path fill="none" stroke="black" d="M354.74,-408.77C361.37,-405.19 368.17,-401.19 374.25,-397 391.87,-384.84 390.24,-372.61 410.25,-365 458.3,-346.73 517.38,-353.55 559.25,-362.77"/>
<polygon fill="black" stroke="black" points="558.3,-366.14 568.84,-365.01 559.89,-359.33 558.3,-366.14"/>
</g>
<!-- 12&#45;&gt;2 -->
<g id="edge21" class="edge">
<title>12&#45;&gt;2</title>
<path fill="none" stroke="black" d="M505.59,-281.55C548.29,-263.08 618.77,-241.9 665.75,-276 727.98,-321.17 738.18,-420.8 739.21,-470.54"/>
<polygon fill="black" stroke="black" points="735.7,-470.29 739.29,-480.26 742.7,-470.23 735.7,-470.29"/>
</g>
<!-- 13&#45;&gt;2 -->
<g id="edge22" class="edge">
<title>13&#45;&gt;2</title>
<path fill="none" stroke="black" d="M647.64,-396.43C653.92,-400.54 660.25,-405.14 665.75,-410 686.68,-428.49 706.37,-453.39 720.02,-472.31"/>
<polygon fill="black" stroke="black" points="717.07,-474.21 725.7,-480.36 722.79,-470.17 717.07,-474.21"/>
</g>
<!-- 14&#45;&gt;2 -->
<g id="edge23" class="edge">
<title>14&#45;&gt;2</title>
<path fill="none" stroke="black" d="M637.55,-1019.55C647.84,-1010.03 659.11,-997.59 665.75,-984 705.47,-902.71 729.62,-621.78 736.62,-529.57"/>
<polygon fill="black" stroke="black" points="740.09,-530.07 737.35,-519.84 733.11,-529.55 740.09,-530.07"/>
</g>
<!-- 15 -->
<g id="node16" class="node">
<title>15</title>
<polygon fill="none" stroke="black" points="355.5,-918 287.75,-918 287.75,-882 355.5,-882 355.5,-918"/>
<text xml:space="preserve" text-anchor="middle" x="321.62" y="-894.95" font-family="Times,serif" font-size="14.00">rskit&#45;auth</text>
</g>
<!-- 16 -->
<g id="node17" class="node">
<title>16</title>
<polygon fill="none" stroke="black" points="507.25,-772 428.25,-772 428.25,-736 507.25,-736 507.25,-772"/>
<text xml:space="preserve" text-anchor="middle" x="467.75" y="-748.95" font-family="Times,serif" font-size="14.00">rskit&#45;config</text>
</g>
<!-- 15&#45;&gt;16 -->
<g id="edge24" class="edge">
<title>15&#45;&gt;16</title>
<path fill="none" stroke="black" d="M355.96,-887.06C362.66,-883.3 369.19,-878.65 374.25,-873 403.56,-840.31 380.35,-813.16 410.25,-781 412.73,-778.33 415.53,-775.9 418.52,-773.69"/>
<polygon fill="black" stroke="black" points="420.11,-776.83 426.67,-768.51 416.35,-770.92 420.11,-776.83"/>
</g>
<!-- 18 -->
<g id="node19" class="node">
<title>18</title>
<polygon fill="none" stroke="black" points="515.5,-934 420,-934 420,-898 515.5,-898 515.5,-934"/>
<text xml:space="preserve" text-anchor="middle" x="467.75" y="-910.95" font-family="Times,serif" font-size="14.00">rskit&#45;httpclient</text>
</g>
<!-- 15&#45;&gt;18 -->
<g id="edge25" class="edge">
<title>15&#45;&gt;18</title>
<path fill="none" stroke="black" d="M355.69,-903.67C371.31,-905.4 390.42,-907.53 408.36,-909.52"/>
<polygon fill="black" stroke="black" points="407.81,-912.98 418.13,-910.6 408.58,-906.02 407.81,-912.98"/>
</g>
<!-- 16&#45;&gt;1 -->
<g id="edge26" class="edge">
<title>16&#45;&gt;1</title>
<path fill="none" stroke="black" d="M507.5,-768.66C513.86,-772.11 520.06,-776.21 525.25,-781 548.67,-802.61 538.26,-820.94 561.25,-843 565.65,-847.22 570.84,-850.96 576.2,-854.2"/>
<polygon fill="black" stroke="black" points="574.11,-857.05 584.57,-858.78 577.47,-850.91 574.11,-857.05"/>
</g>
<!-- 16&#45;&gt;6 -->
<g id="edge28" class="edge">
<title>16&#45;&gt;6</title>
<path fill="none" stroke="black" d="M507.65,-770.78C524.05,-777.85 543.38,-786.19 560.95,-793.77"/>
<polygon fill="black" stroke="black" points="559.09,-796.78 569.66,-797.52 561.87,-790.35 559.09,-796.78"/>
</g>
<!-- 17 -->
<g id="node18" class="node">
<title>17</title>
<polygon fill="none" stroke="black" points="662.75,-726 564.25,-726 564.25,-690 662.75,-690 662.75,-726"/>
<text xml:space="preserve" text-anchor="middle" x="613.5" y="-702.95" font-family="Times,serif" font-size="14.00">rskit&#45;validation</text>
</g>
<!-- 16&#45;&gt;17 -->
<g id="edge27" class="edge">
<title>16&#45;&gt;17</title>
<path fill="none" stroke="black" d="M507.65,-741.55C521.57,-737.1 537.59,-731.97 552.86,-727.09"/>
<polygon fill="black" stroke="black" points="553.9,-730.43 562.35,-724.05 551.76,-723.76 553.9,-730.43"/>
</g>
<!-- 17&#45;&gt;2 -->
<g id="edge29" class="edge">
<title>17&#45;&gt;2</title>
<path fill="none" stroke="black" d="M656.13,-689.51C659.64,-686.97 662.92,-684.13 665.75,-681 705.58,-636.91 725.1,-568.29 733.44,-529.44"/>
<polygon fill="black" stroke="black" points="736.82,-530.38 735.38,-519.88 729.96,-528.99 736.82,-530.38"/>
</g>
<!-- 18&#45;&gt;1 -->
<g id="edge30" class="edge">
<title>18&#45;&gt;1</title>
<path fill="none" stroke="black" d="M515.82,-900.94C535.08,-894.78 557.04,-887.75 575.16,-881.95"/>
<polygon fill="black" stroke="black" points="575.99,-885.36 584.45,-878.98 573.86,-878.69 575.99,-885.36"/>
</g>
<!-- 18&#45;&gt;14 -->
<g id="edge31" class="edge">
<title>18&#45;&gt;14</title>
<path fill="none" stroke="black" d="M490.27,-934.26C514.72,-955.02 554.8,-989.03 582.36,-1012.42"/>
<polygon fill="black" stroke="black" points="579.79,-1014.83 589.68,-1018.63 584.32,-1009.49 579.79,-1014.83"/>
</g>
<!-- 19 -->
<g id="node20" class="node">
<title>19</title>
<polygon fill="none" stroke="black" points="657.12,-1125 569.88,-1125 569.88,-1089 657.12,-1089 657.12,-1125"/>
<text xml:space="preserve" text-anchor="middle" x="613.5" y="-1101.95" font-family="Times,serif" font-size="14.00">rskit&#45;security</text>
</g>
<!-- 18&#45;&gt;19 -->
<g id="edge32" class="edge">
<title>18&#45;&gt;19</title>
<path fill="none" stroke="black" d="M477.58,-934.25C492.34,-963.7 524.11,-1022.65 561.25,-1065 566.3,-1070.75 572.18,-1076.35 578.12,-1081.49"/>
<polygon fill="black" stroke="black" points="575.68,-1084.01 585.62,-1087.68 580.14,-1078.62 575.68,-1084.01"/>
</g>
<!-- 19&#45;&gt;0 -->
<g id="edge34" class="edge">
<title>19&#45;&gt;0</title>
<path fill="none" stroke="black" d="M657.61,-1107C670.38,-1107 684.34,-1107 697.02,-1107"/>
<polygon fill="black" stroke="black" points="696.73,-1110.5 706.73,-1107 696.73,-1103.5 696.73,-1110.5"/>
</g>
<!-- 19&#45;&gt;2 -->
<g id="edge33" class="edge">
<title>19&#45;&gt;2</title>
<path fill="none" stroke="black" d="M644.6,-1088.56C652.73,-1082.11 660.67,-1074.15 665.75,-1065 717.67,-971.39 733.98,-632.16 737.78,-529.58"/>
<polygon fill="black" stroke="black" points="741.27,-529.91 738.13,-519.79 734.27,-529.66 741.27,-529.91"/>
</g>
<!-- 20 -->
<g id="node21" class="node">
<title>20</title>
<polygon fill="none" stroke="black" points="358.5,-972 284.75,-972 284.75,-936 358.5,-936 358.5,-972"/>
<text xml:space="preserve" text-anchor="middle" x="321.62" y="-948.95" font-family="Times,serif" font-size="14.00">rskit&#45;authz</text>
</g>
<!-- 20&#45;&gt;2 -->
<g id="edge35" class="edge">
<title>20&#45;&gt;2</title>
<path fill="none" stroke="black" d="M358.8,-959.28C437.47,-969.91 620.67,-989.71 665.75,-951 729.68,-896.1 737.78,-621.63 738.68,-529.91"/>
<polygon fill="black" stroke="black" points="742.18,-529.99 738.75,-519.97 735.18,-529.94 742.18,-529.99"/>
</g>
<!-- 21 -->
<g id="node22" class="node">
<title>21</title>
<polygon fill="none" stroke="black" points="224,-419 147.25,-419 147.25,-383 224,-383 224,-419"/>
<text xml:space="preserve" text-anchor="middle" x="185.62" y="-395.95" font-family="Times,serif" font-size="14.00">rskit&#45;bench</text>
</g>
<!-- 21&#45;&gt;0 -->
<g id="edge39" class="edge">
<title>21&#45;&gt;0</title>
<path fill="none" stroke="black" d="M190.88,-419.32C199.84,-458.51 220.83,-553.46 233,-634 274.98,-911.89 168.7,-1097.33 410.25,-1241 515.74,-1303.74 656.04,-1187.62 713.05,-1133.07"/>
<polygon fill="black" stroke="black" points="715.34,-1135.72 720.06,-1126.24 710.46,-1130.7 715.34,-1135.72"/>
</g>
<!-- 21&#45;&gt;1 -->
<g id="edge37" class="edge">
<title>21&#45;&gt;1</title>
<path fill="none" stroke="black" d="M194.15,-419.16C206.62,-447.8 233.76,-504.16 269,-543 363.22,-646.84 443.27,-613.25 525.25,-727 556.81,-770.79 526.75,-801.48 561.25,-843 565.31,-847.88 570.48,-852 575.97,-855.43"/>
<polygon fill="black" stroke="black" points="574.24,-858.47 584.7,-860.16 577.57,-852.32 574.24,-858.47"/>
</g>
<!-- 21&#45;&gt;12 -->
<g id="edge38" class="edge">
<title>21&#45;&gt;12</title>
<path fill="none" stroke="black" d="M220.03,-382.55C224.47,-379.81 228.9,-376.92 233,-374 250.2,-361.75 250.1,-352.42 269,-343 309.49,-322.81 359.29,-312.05 398.79,-306.35"/>
<polygon fill="black" stroke="black" points="399.22,-309.82 408.66,-305 398.28,-302.88 399.22,-309.82"/>
</g>
<!-- 22 -->
<g id="node23" class="node">
<title>22</title>
<polygon fill="none" stroke="black" points="350.62,-296 292.62,-296 292.62,-260 350.62,-260 350.62,-296"/>
<text xml:space="preserve" text-anchor="middle" x="321.62" y="-272.95" font-family="Times,serif" font-size="14.00">rskit&#45;cli</text>
</g>
<!-- 21&#45;&gt;22 -->
<g id="edge36" class="edge">
<title>21&#45;&gt;22</title>
<path fill="none" stroke="black" d="M222.5,-382.8C226.27,-380.13 229.86,-377.19 233,-374 255.9,-350.75 246.42,-333.56 269,-310 273.05,-305.78 277.76,-301.88 282.67,-298.37"/>
<polygon fill="black" stroke="black" points="284.5,-301.35 290.94,-292.94 280.66,-295.5 284.5,-301.35"/>
</g>
<!-- 21&#45;&gt;23 -->
<g id="edge40" class="edge">
<title>21&#45;&gt;23</title>
<path fill="none" stroke="black" d="M224.36,-382.91C227.6,-380.26 230.57,-377.3 233,-374 275.22,-316.72 245.52,-285.17 269,-218 278.8,-189.97 293.74,-159.59 305.03,-138.22"/>
<polygon fill="black" stroke="black" points="308.04,-140.01 309.68,-129.54 301.87,-136.7 308.04,-140.01"/>
</g>
<!-- 22&#45;&gt;2 -->
<g id="edge41" class="edge">
<title>22&#45;&gt;2</title>
<path fill="none" stroke="black" d="M350.96,-264.8C414.45,-237.4 570.04,-182.56 665.75,-254 700.82,-280.18 725.06,-411.06 734.43,-470.52"/>
<polygon fill="black" stroke="black" points="730.95,-470.89 735.93,-480.24 737.87,-469.82 730.95,-470.89"/>
</g>
<!-- 23&#45;&gt;10 -->
<g id="edge42" class="edge">
<title>23&#45;&gt;10</title>
<path fill="none" stroke="black" d="M363.16,-122.94C378.11,-127.71 395.31,-133.2 411.35,-138.32"/>
<polygon fill="black" stroke="black" points="410.2,-141.62 420.79,-141.33 412.32,-134.95 410.2,-141.62"/>
</g>
<!-- 24&#45;&gt;7 -->
<g id="edge43" class="edge">
<title>24&#45;&gt;7</title>
<path fill="none" stroke="black" d="M190.53,-642.67C198.86,-607.86 221.61,-531.87 269,-489 305.88,-455.64 331.51,-476.42 374.25,-451 392.65,-440.06 392.42,-430.84 410.25,-419 411.81,-417.97 413.41,-416.95 415.04,-415.95"/>
<polygon fill="black" stroke="black" points="416.4,-419.21 423.36,-411.22 412.93,-413.13 416.4,-419.21"/>
</g>
<!-- 24&#45;&gt;8 -->
<g id="edge45" class="edge">
<title>24&#45;&gt;8</title>
<path fill="none" stroke="black" d="M233.2,-643.21C285.34,-623.29 369.3,-591.22 421.07,-571.45"/>
<polygon fill="black" stroke="black" points="422.1,-574.8 430.2,-567.96 419.6,-568.26 422.1,-574.8"/>
</g>
<!-- 24&#45;&gt;10 -->
<g id="edge47" class="edge">
<title>24&#45;&gt;10</title>
<path fill="none" stroke="black" d="M190.28,-642.63C206.15,-563.06 268.19,-251.97 269,-251 301.24,-212.31 328.98,-231.08 374.25,-209 390.9,-200.88 394.19,-197.23 410.25,-188 414.83,-185.36 419.64,-182.62 424.42,-179.9"/>
<polygon fill="black" stroke="black" points="425.86,-183.1 432.83,-175.12 422.4,-177.02 425.86,-183.1"/>
</g>
<!-- 25 -->
<g id="node26" class="node">
<title>25</title>
<polygon fill="none" stroke="black" points="349.12,-702 294.12,-702 294.12,-666 349.12,-666 349.12,-702"/>
<text xml:space="preserve" text-anchor="middle" x="321.62" y="-678.95" font-family="Times,serif" font-size="14.00">rskit&#45;di</text>
</g>
<!-- 24&#45;&gt;25 -->
<g id="edge44" class="edge">
<title>24&#45;&gt;25</title>
<path fill="none" stroke="black" d="M233.49,-669.04C249.61,-671.81 267.44,-674.87 282.75,-677.5"/>
<polygon fill="black" stroke="black" points="281.96,-680.91 292.41,-679.16 283.14,-674.02 281.96,-680.91"/>
</g>
<!-- 26 -->
<g id="node27" class="node">
<title>26</title>
<polygon fill="none" stroke="black" points="364.5,-756 278.75,-756 278.75,-720 364.5,-720 364.5,-756"/>
<text xml:space="preserve" text-anchor="middle" x="321.62" y="-732.95" font-family="Times,serif" font-size="14.00">rskit&#45;logging</text>
</g>
<!-- 24&#45;&gt;26 -->
<g id="edge46" class="edge">
<title>24&#45;&gt;26</title>
<path fill="none" stroke="black" d="M215.71,-679.28C231.36,-688.95 251.08,-700.89 269,-711 270.88,-712.06 272.81,-713.14 274.76,-714.21"/>
<polygon fill="black" stroke="black" points="272.85,-717.15 283.31,-718.83 276.18,-711 272.85,-717.15"/>
</g>
<!-- 25&#45;&gt;2 -->
<g id="edge48" class="edge">
<title>25&#45;&gt;2</title>
<path fill="none" stroke="black" d="M349.52,-675.87C391.34,-662.1 472.64,-630.76 525.25,-581 548.4,-559.11 534.52,-536.35 561.25,-519 599.42,-494.23 652.18,-491.62 690.25,-493.9"/>
<polygon fill="black" stroke="black" points="689.82,-497.38 700.05,-494.64 690.34,-490.4 689.82,-497.38"/>
</g>
<!-- 26&#45;&gt;16 -->
<g id="edge49" class="edge">
<title>26&#45;&gt;16</title>
<path fill="none" stroke="black" d="M364.7,-742.67C380.9,-744.47 399.56,-746.54 416.46,-748.42"/>
<polygon fill="black" stroke="black" points="416,-751.89 426.33,-749.51 416.77,-744.93 416,-751.89"/>
</g>
<!-- 27 -->
<g id="node28" class="node">
<title>27</title>
<polygon fill="none" stroke="black" points="651.12,-82 575.88,-82 575.88,-46 651.12,-46 651.12,-82"/>
<text xml:space="preserve" text-anchor="middle" x="613.5" y="-58.95" font-family="Times,serif" font-size="14.00">rskit&#45;cache</text>
</g>
<!-- 27&#45;&gt;2 -->
<g id="edge50" class="edge">
<title>27&#45;&gt;2</title>
<path fill="none" stroke="black" d="M651.59,-78.18C657.01,-81.65 662.01,-85.89 665.75,-91 710.33,-151.99 730.83,-387.01 736.81,-470.42"/>
<polygon fill="black" stroke="black" points="733.31,-470.57 737.5,-480.3 740.3,-470.08 733.31,-470.57"/>
</g>
<!-- 28 -->
<g id="node29" class="node">
<title>28</title>
<polygon fill="none" stroke="black" points="650.38,-780 576.62,-780 576.62,-744 650.38,-744 650.38,-780"/>
<text xml:space="preserve" text-anchor="middle" x="613.5" y="-756.95" font-family="Times,serif" font-size="14.00">rskit&#45;chain</text>
</g>
<!-- 28&#45;&gt;2 -->
<g id="edge51" class="edge">
<title>28&#45;&gt;2</title>
<path fill="none" stroke="black" d="M650.8,-747.57C656.37,-744.11 661.64,-739.95 665.75,-735 716.48,-673.97 732.03,-577.78 736.74,-529.58"/>
<polygon fill="black" stroke="black" points="740.2,-530.19 737.58,-519.92 733.22,-529.58 740.2,-530.19"/>
</g>
<!-- 29 -->
<g id="node30" class="node">
<title>29</title>
<polygon fill="none" stroke="black" points="353.62,-36 289.62,-36 289.62,0 353.62,0 353.62,-36"/>
<text xml:space="preserve" text-anchor="middle" x="321.62" y="-12.95" font-family="Times,serif" font-size="14.00">rskit&#45;dag</text>
</g>
<!-- 29&#45;&gt;10 -->
<g id="edge52" class="edge">
<title>29&#45;&gt;10</title>
<path fill="none" stroke="black" d="M353.97,-35.35C360.93,-39.75 368.06,-44.74 374.25,-50 402.1,-73.66 429,-105.87 446.54,-128.56"/>
<polygon fill="black" stroke="black" points="443.7,-130.61 452.54,-136.44 449.27,-126.36 443.7,-130.61"/>
</g>
<!-- 30 -->
<g id="node31" class="node">
<title>30</title>
<polygon fill="none" stroke="black" points="96.62,-679 5.62,-679 5.62,-643 96.62,-643 96.62,-679"/>
<text xml:space="preserve" text-anchor="middle" x="51.12" y="-655.95" font-family="Times,serif" font-size="14.00">rskit&#45;database</text>
</g>
<!-- 30&#45;&gt;24 -->
<g id="edge53" class="edge">
<title>30&#45;&gt;24</title>
<path fill="none" stroke="black" d="M96.98,-661C106.48,-661 116.63,-661 126.54,-661"/>
<polygon fill="black" stroke="black" points="126.49,-664.5 136.49,-661 126.49,-657.5 126.49,-664.5"/>
</g>
<!-- 31 -->
<g id="node32" class="node">
<title>31</title>
<polygon fill="none" stroke="black" points="508.75,-464 426.75,-464 426.75,-428 508.75,-428 508.75,-464"/>
<text xml:space="preserve" text-anchor="middle" x="467.75" y="-440.95" font-family="Times,serif" font-size="14.00">rskit&#45;dataset</text>
</g>
<!-- 31&#45;&gt;1 -->
<g id="edge54" class="edge">
<title>31&#45;&gt;1</title>
<path fill="none" stroke="black" d="M509.12,-458.83C515.38,-462.48 521.13,-467.12 525.25,-473 620.03,-608.33 469.13,-705.84 561.25,-843 564.99,-848.56 570.25,-853.06 575.99,-856.67"/>
<polygon fill="black" stroke="black" points="574.11,-859.63 584.58,-861.22 577.39,-853.44 574.11,-859.63"/>
</g>
<!-- 31&#45;&gt;13 -->
<g id="edge56" class="edge">
<title>31&#45;&gt;13</title>
<path fill="none" stroke="black" d="M507.65,-427.6C524.75,-419.51 545.03,-409.92 563.17,-401.33"/>
<polygon fill="black" stroke="black" points="564.66,-404.5 572.2,-397.06 561.66,-398.18 564.66,-404.5"/>
</g>
<!-- 31&#45;&gt;17 -->
<g id="edge57" class="edge">
<title>31&#45;&gt;17</title>
<path fill="none" stroke="black" d="M509.05,-459.25C515.24,-462.85 520.98,-467.37 525.25,-473 581.89,-547.79 506.08,-605.12 561.25,-681 561.4,-681.2 561.55,-681.41 561.7,-681.61"/>
<polygon fill="black" stroke="black" points="559.1,-683.96 568.6,-688.64 564.1,-679.05 559.1,-683.96"/>
</g>
<!-- 31&#45;&gt;32 -->
<g id="edge55" class="edge">
<title>31&#45;&gt;32</title>
<path fill="none" stroke="black" d="M509.12,-430.7C514.94,-427.4 520.54,-423.52 525.25,-419 549.92,-395.32 537.05,-375.16 561.25,-351 561.74,-350.51 562.24,-350.03 562.75,-349.56"/>
<polygon fill="black" stroke="black" points="564.87,-352.34 570.53,-343.39 560.52,-346.86 564.87,-352.34"/>
</g>
<!-- 32&#45;&gt;2 -->
<g id="edge58" class="edge">
<title>32&#45;&gt;2</title>
<path fill="none" stroke="black" d="M655.39,-342.35C659.13,-344.94 662.67,-347.83 665.75,-351 699.32,-385.57 720.19,-438.58 730.62,-471.17"/>
<polygon fill="black" stroke="black" points="727.15,-471.8 733.43,-480.34 733.84,-469.75 727.15,-471.8"/>
</g>
<!-- 33 -->
<g id="node34" class="node">
<title>33</title>
<polygon fill="none" stroke="black" points="516.25,-1232 419.25,-1232 419.25,-1196 516.25,-1196 516.25,-1232"/>
<text xml:space="preserve" text-anchor="middle" x="467.75" y="-1208.95" font-family="Times,serif" font-size="14.00">rskit&#45;discovery</text>
</g>
<!-- 33&#45;&gt;0 -->
<g id="edge60" class="edge">
<title>33&#45;&gt;0</title>
<path fill="none" stroke="black" d="M515.16,-1195.61C566.47,-1175.27 648.33,-1142.83 697.48,-1123.36"/>
<polygon fill="black" stroke="black" points="698.62,-1126.67 706.63,-1119.73 696.05,-1120.16 698.62,-1126.67"/>
</g>
<!-- 33&#45;&gt;14 -->
<g id="edge59" class="edge">
<title>33&#45;&gt;14</title>
<path fill="none" stroke="black" d="M486.81,-1195.62C498.57,-1183.1 513.8,-1165.8 525.25,-1149 544.73,-1120.42 539.43,-1106.84 561.25,-1080 565.98,-1074.18 571.62,-1068.61 577.41,-1063.52"/>
<polygon fill="black" stroke="black" points="579.28,-1066.51 584.73,-1057.43 574.8,-1061.13 579.28,-1066.51"/>
</g>
<!-- 34 -->
<g id="node35" class="node">
<title>34</title>
<polygon fill="none" stroke="black" points="374.25,-388 269,-388 269,-352 374.25,-352 374.25,-388"/>
<text xml:space="preserve" text-anchor="middle" x="321.62" y="-364.95" font-family="Times,serif" font-size="14.00">rskit&#45;embedding</text>
</g>
<!-- 34&#45;&gt;5 -->
<g id="edge61" class="edge">
<title>34&#45;&gt;5</title>
<path fill="none" stroke="black" d="M364.11,-388.46C367.78,-391.02 371.24,-393.86 374.25,-397 400.15,-423.95 383.87,-446.53 410.25,-473 415.82,-478.59 422.77,-483.18 429.87,-486.88"/>
<polygon fill="black" stroke="black" points="428.33,-490.03 438.87,-491.06 431.27,-483.68 428.33,-490.03"/>
</g>
<!-- 34&#45;&gt;7 -->
<g id="edge62" class="edge">
<title>34&#45;&gt;7</title>
<path fill="none" stroke="black" d="M374.66,-377.94C384.05,-379.38 393.93,-380.88 403.59,-382.36"/>
<polygon fill="black" stroke="black" points="402.88,-385.79 413.3,-383.84 403.94,-378.87 402.88,-385.79"/>
</g>
<!-- 34&#45;&gt;10 -->
<g id="edge64" class="edge">
<title>34&#45;&gt;10</title>
<path fill="none" stroke="black" d="M338.12,-351.67C348.69,-338.88 362.8,-321.26 374.25,-305 402.94,-264.24 432.76,-214.69 450.54,-184.25"/>
<polygon fill="black" stroke="black" points="453.54,-186.04 455.54,-175.63 447.49,-182.52 453.54,-186.04"/>
</g>
<!-- 34&#45;&gt;12 -->
<g id="edge63" class="edge">
<title>34&#45;&gt;12</title>
<path fill="none" stroke="black" d="M360.49,-351.61C378.3,-342.96 399.72,-332.55 418.66,-323.36"/>
<polygon fill="black" stroke="black" points="420.06,-326.57 427.52,-319.05 417,-320.27 420.06,-326.57"/>
</g>
<!-- 35 -->
<g id="node36" class="node">
<title>35</title>
<polygon fill="none" stroke="black" points="664.62,-672 562.38,-672 562.38,-636 664.62,-636 664.62,-672"/>
<text xml:space="preserve" text-anchor="middle" x="613.5" y="-648.95" font-family="Times,serif" font-size="14.00">rskit&#45;encryption</text>
</g>
<!-- 35&#45;&gt;2 -->
<g id="edge65" class="edge">
<title>35&#45;&gt;2</title>
<path fill="none" stroke="black" d="M654.92,-635.61C658.8,-633.01 662.49,-630.14 665.75,-627 695.01,-598.8 716.18,-556.32 727.97,-528.38"/>
<polygon fill="black" stroke="black" points="731.06,-530.07 731.59,-519.49 724.57,-527.43 731.06,-530.07"/>
</g>
<!-- 36 -->
<g id="node37" class="node">
<title>36</title>
<polygon fill="none" stroke="black" points="497.12,-880 438.38,-880 438.38,-844 497.12,-844 497.12,-880"/>
<text xml:space="preserve" text-anchor="middle" x="467.75" y="-856.95" font-family="Times,serif" font-size="14.00">rskit&#45;git</text>
</g>
<!-- 36&#45;&gt;1 -->
<g id="edge66" class="edge">
<title>36&#45;&gt;1</title>
<path fill="none" stroke="black" d="M497.49,-863.6C519.74,-864.84 550.75,-866.56 574.95,-867.91"/>
<polygon fill="black" stroke="black" points="574.54,-871.39 584.71,-868.45 574.92,-864.4 574.54,-871.39"/>
</g>
<!-- 37 -->
<g id="node38" class="node">
<title>37</title>
<polygon fill="none" stroke="black" points="656,-942 571,-942 571,-906 656,-906 656,-942"/>
<text xml:space="preserve" text-anchor="middle" x="613.5" y="-918.95" font-family="Times,serif" font-size="14.00">rskit&#45;process</text>
</g>
<!-- 36&#45;&gt;37 -->
<g id="edge67" class="edge">
<title>36&#45;&gt;37</title>
<path fill="none" stroke="black" d="M497.49,-874.4C515.44,-882.14 539.07,-892.33 560.25,-901.46"/>
<polygon fill="black" stroke="black" points="558.77,-904.64 569.34,-905.38 561.54,-898.21 558.77,-904.64"/>
</g>
<!-- 37&#45;&gt;0 -->
<g id="edge69" class="edge">
<title>37&#45;&gt;0</title>
<path fill="none" stroke="black" d="M626.87,-942.22C648.67,-974.33 694.08,-1041.21 719.84,-1079.15"/>
<polygon fill="black" stroke="black" points="716.88,-1081.03 725.4,-1087.33 722.68,-1077.09 716.88,-1081.03"/>
</g>
<!-- 37&#45;&gt;2 -->
<g id="edge68" class="edge">
<title>37&#45;&gt;2</title>
<path fill="none" stroke="black" d="M656.34,-906.45C659.9,-903.7 663.13,-900.57 665.75,-897 709.08,-838.06 730.29,-611.2 736.64,-529.52"/>
<polygon fill="black" stroke="black" points="740.12,-529.88 737.39,-519.64 733.14,-529.35 740.12,-529.88"/>
</g>
<!-- 38 -->
<g id="node39" class="node">
<title>38</title>
<polygon fill="none" stroke="black" points="362.25,-534 281,-534 281,-498 362.25,-498 362.25,-534"/>
<text xml:space="preserve" text-anchor="middle" x="321.62" y="-510.95" font-family="Times,serif" font-size="14.00">rskit&#45;testutil</text>
</g>
<!-- 38&#45;&gt;7 -->
<g id="edge70" class="edge">
<title>38&#45;&gt;7</title>
<path fill="none" stroke="black" d="M357.79,-497.61C363.7,-493.61 369.45,-489.04 374.25,-484 397.02,-460.08 386.21,-441.64 410.25,-419 410.87,-418.41 411.51,-417.84 412.16,-417.27"/>
<polygon fill="black" stroke="black" points="414.13,-420.17 420.07,-411.4 409.95,-414.55 414.13,-420.17"/>
</g>
<!-- 38&#45;&gt;8 -->
<g id="edge72" class="edge">
<title>38&#45;&gt;8</title>
<path fill="none" stroke="black" d="M362.39,-526.48C380.41,-531.24 401.84,-536.89 420.57,-541.82"/>
<polygon fill="black" stroke="black" points="419.51,-545.16 430.07,-544.33 421.3,-538.4 419.51,-545.16"/>
</g>
<!-- 38&#45;&gt;10 -->
<g id="edge73" class="edge">
<title>38&#45;&gt;10</title>
<path fill="none" stroke="black" d="M341.07,-497.71C352.34,-485.5 366.11,-468.51 374.25,-451 408.29,-377.82 384.5,-349.49 410.25,-273 420.86,-241.48 437.99,-207.47 450.61,-184.28"/>
<polygon fill="black" stroke="black" points="453.54,-186.21 455.32,-175.76 447.41,-182.82 453.54,-186.21"/>
</g>
<!-- 38&#45;&gt;16 -->
<g id="edge71" class="edge">
<title>38&#45;&gt;16</title>
<path fill="none" stroke="black" d="M333.69,-534.28C358.74,-575.64 419.89,-676.62 449.77,-725.95"/>
<polygon fill="black" stroke="black" points="446.68,-727.62 454.86,-734.36 452.67,-724 446.68,-727.62"/>
</g>
<!-- 39 -->
<g id="node40" class="node">
<title>39</title>
<polygon fill="none" stroke="black" points="502,-1140 433.5,-1140 433.5,-1104 502,-1104 502,-1140"/>
<text xml:space="preserve" text-anchor="middle" x="467.75" y="-1116.95" font-family="Times,serif" font-size="14.00">rskit&#45;grpc</text>
</g>
<!-- 39&#45;&gt;1 -->
<g id="edge74" class="edge">
<title>39&#45;&gt;1</title>
<path fill="none" stroke="black" d="M471.87,-1103.69C479.81,-1062.18 504.28,-959.65 561.25,-897 565.48,-892.35 570.7,-888.36 576.17,-884.99"/>
<polygon fill="black" stroke="black" points="577.69,-888.14 584.81,-880.29 574.35,-881.99 577.69,-888.14"/>
</g>
<!-- 39&#45;&gt;14 -->
<g id="edge75" class="edge">
<title>39&#45;&gt;14</title>
<path fill="none" stroke="black" d="M501.68,-1103.51C509.43,-1099.11 517.65,-1094.42 525.25,-1090 540.61,-1081.07 557.39,-1071.12 572.1,-1062.33"/>
<polygon fill="black" stroke="black" points="573.83,-1065.37 580.61,-1057.23 570.23,-1059.37 573.83,-1065.37"/>
</g>
<!-- 39&#45;&gt;19 -->
<g id="edge76" class="edge">
<title>39&#45;&gt;19</title>
<path fill="none" stroke="black" d="M502.45,-1118.48C519.01,-1116.75 539.39,-1114.63 558.08,-1112.68"/>
<polygon fill="black" stroke="black" points="558.37,-1116.17 567.95,-1111.65 557.64,-1109.21 558.37,-1116.17"/>
</g>
<!-- 40 -->
<g id="node41" class="node">
<title>40</title>
<polygon fill="none" stroke="black" points="218.38,-1216 152.88,-1216 152.88,-1180 218.38,-1180 218.38,-1216"/>
<text xml:space="preserve" text-anchor="middle" x="185.62" y="-1192.95" font-family="Times,serif" font-size="14.00">rskit&#45;http</text>
</g>
<!-- 40&#45;&gt;19 -->
<g id="edge77" class="edge">
<title>40&#45;&gt;19</title>
<path fill="none" stroke="black" d="M218.61,-1196.61C279.52,-1193.26 415.88,-1182.37 525.25,-1149 540.37,-1144.39 556.15,-1137.5 570.07,-1130.62"/>
<polygon fill="black" stroke="black" points="571.64,-1133.75 578.96,-1126.1 568.47,-1127.51 571.64,-1133.75"/>
</g>
<!-- 41 -->
<g id="node42" class="node">
<title>41</title>
<polygon fill="none" stroke="black" points="233,-93 138.25,-93 138.25,-57 233,-57 233,-93"/>
<text xml:space="preserve" text-anchor="middle" x="185.62" y="-69.95" font-family="Times,serif" font-size="14.00">rskit&#45;inference</text>
</g>
<!-- 41&#45;&gt;10 -->
<g id="edge78" class="edge">
<title>41&#45;&gt;10</title>
<path fill="none" stroke="black" d="M233.3,-69.2C272.24,-66.16 328.55,-66.04 374.25,-83 400.62,-92.79 425.35,-113.12 442.59,-129.85"/>
<polygon fill="black" stroke="black" points="439.82,-132.03 449.36,-136.64 444.78,-127.08 439.82,-132.03"/>
</g>
<!-- 41&#45;&gt;11 -->
<g id="edge79" class="edge">
<title>41&#45;&gt;11</title>
<path fill="none" stroke="black" d="M189.32,-93.39C198.56,-154.3 230.5,-348.37 269,-397 271.82,-400.56 275.23,-403.69 278.94,-406.45"/>
<polygon fill="black" stroke="black" points="277.02,-409.38 287.35,-411.74 280.75,-403.45 277.02,-409.38"/>
</g>
<!-- 42 -->
<g id="node43" class="node">
<title>42</title>
<polygon fill="none" stroke="black" points="219.88,-810 151.38,-810 151.38,-774 219.88,-774 219.88,-810"/>
<text xml:space="preserve" text-anchor="middle" x="185.62" y="-786.95" font-family="Times,serif" font-size="14.00">rskit&#45;mcp</text>
</g>
<!-- 42&#45;&gt;11 -->
<g id="edge82" class="edge">
<title>42&#45;&gt;11</title>
<path fill="none" stroke="black" d="M196.39,-773.73C206.9,-753.36 223.38,-719.17 233,-688 259.49,-602.11 231.93,-570.88 269,-489 275.28,-475.12 285.18,-461.62 294.64,-450.55"/>
<polygon fill="black" stroke="black" points="297,-453.15 301.05,-443.36 291.78,-448.5 297,-453.15"/>
</g>
<!-- 42&#45;&gt;20 -->
<g id="edge80" class="edge">
<title>42&#45;&gt;20</title>
<path fill="none" stroke="black" d="M193.95,-810.3C205.99,-838.43 232.32,-892.66 269,-927 270.86,-928.74 272.85,-930.4 274.94,-931.98"/>
<polygon fill="black" stroke="black" points="272.99,-934.88 283.25,-937.53 276.87,-929.06 272.99,-934.88"/>
</g>
<!-- 43 -->
<g id="node44" class="node">
<title>43</title>
<polygon fill="none" stroke="black" points="355.5,-810 287.75,-810 287.75,-774 355.5,-774 355.5,-810"/>
<text xml:space="preserve" text-anchor="middle" x="321.62" y="-786.95" font-family="Times,serif" font-size="14.00">rskit&#45;skill</text>
</g>
<!-- 42&#45;&gt;43 -->
<g id="edge81" class="edge">
<title>42&#45;&gt;43</title>
<path fill="none" stroke="black" d="M220.09,-792C237.09,-792 257.96,-792 276.28,-792"/>
<polygon fill="black" stroke="black" points="276.07,-795.5 286.07,-792 276.07,-788.5 276.07,-795.5"/>
</g>
<!-- 43&#45;&gt;16 -->
<g id="edge83" class="edge">
<title>43&#45;&gt;16</title>
<path fill="none" stroke="black" d="M355.69,-783.28C373.85,-778.49 396.74,-772.46 417.02,-767.11"/>
<polygon fill="black" stroke="black" points="417.72,-770.55 426.5,-764.61 415.94,-763.78 417.72,-770.55"/>
</g>
<!-- 44 -->
<g id="node45" class="node">
<title>44</title>
<polygon fill="none" stroke="black" points="360.75,-864 282.5,-864 282.5,-828 360.75,-828 360.75,-864"/>
<text xml:space="preserve" text-anchor="middle" x="321.62" y="-840.95" font-family="Times,serif" font-size="14.00">rskit&#45;media</text>
</g>
<!-- 45 -->
<g id="node46" class="node">
<title>45</title>
<polygon fill="none" stroke="black" points="509.5,-826 426,-826 426,-790 509.5,-790 509.5,-826"/>
<text xml:space="preserve" text-anchor="middle" x="467.75" y="-802.95" font-family="Times,serif" font-size="14.00">rskit&#45;storage</text>
</g>
<!-- 44&#45;&gt;45 -->
<g id="edge84" class="edge">
<title>44&#45;&gt;45</title>
<path fill="none" stroke="black" d="M361.25,-835.82C377.67,-831.49 397.08,-826.37 414.74,-821.71"/>
<polygon fill="black" stroke="black" points="415.51,-825.13 424.29,-819.2 413.72,-818.36 415.51,-825.13"/>
</g>
<!-- 45&#45;&gt;1 -->
<g id="edge85" class="edge">
<title>45&#45;&gt;1</title>
<path fill="none" stroke="black" d="M509.94,-825.77C530.76,-834.74 555.8,-845.55 575.93,-854.23"/>
<polygon fill="black" stroke="black" points="574.3,-857.33 584.86,-858.08 577.07,-850.91 574.3,-857.33"/>
</g>
<!-- 46 -->
<g id="node47" class="node">
<title>46</title>
<polygon fill="none" stroke="black" points="102.25,-914 0,-914 0,-878 102.25,-878 102.25,-914"/>
<text xml:space="preserve" text-anchor="middle" x="51.12" y="-890.95" font-family="Times,serif" font-size="14.00">rskit&#45;messaging</text>
</g>
<!-- 46&#45;&gt;14 -->
<g id="edge87" class="edge">
<title>46&#45;&gt;14</title>
<path fill="none" stroke="black" d="M55.93,-914.45C64.11,-948.78 86.96,-1021.73 138.25,-1052 269.77,-1129.62 459.55,-1087.47 554.21,-1058.31"/>
<polygon fill="black" stroke="black" points="555.06,-1061.71 563.55,-1055.37 552.96,-1055.04 555.06,-1061.71"/>
</g>
<!-- 46&#45;&gt;24 -->
<g id="edge86" class="edge">
<title>46&#45;&gt;24</title>
<path fill="none" stroke="black" d="M62.52,-877.56C85.6,-836.63 141.22,-737.98 168.7,-689.24"/>
<polygon fill="black" stroke="black" points="171.67,-691.1 173.53,-680.67 165.57,-687.66 171.67,-691.1"/>
</g>
<!-- 47 -->
<g id="node48" class="node">
<title>47</title>
<polygon fill="none" stroke="black" points="89.88,-1170 12.38,-1170 12.38,-1134 89.88,-1134 89.88,-1170"/>
<text xml:space="preserve" text-anchor="middle" x="51.12" y="-1146.95" font-family="Times,serif" font-size="14.00">rskit&#45;server</text>
</g>
<!-- 47&#45;&gt;24 -->
<g id="edge88" class="edge">
<title>47&#45;&gt;24</title>
<path fill="none" stroke="black" d="M56.18,-1133.56C72.83,-1057.8 135.26,-774.06 138.25,-765 146.93,-738.75 159.97,-710.14 170.01,-689.58"/>
<polygon fill="black" stroke="black" points="173.11,-691.21 174.42,-680.7 166.84,-688.1 173.11,-691.21"/>
</g>
<!-- 47&#45;&gt;39 -->
<g id="edge89" class="edge">
<title>47&#45;&gt;39</title>
<path fill="none" stroke="black" stroke-dasharray="1,5" d="M90.02,-1149.26C166.62,-1143.72 339.55,-1131.2 421.74,-1125.26"/>
<polygon fill="black" stroke="black" points="421.95,-1128.75 431.67,-1124.54 421.45,-1121.77 421.95,-1128.75"/>
</g>
<!-- 47&#45;&gt;40 -->
<g id="edge90" class="edge">
<title>47&#45;&gt;40</title>
<path fill="none" stroke="black" stroke-dasharray="1,5" d="M90.09,-1165.18C106.28,-1170.8 125.24,-1177.38 141.91,-1183.17"/>
<polygon fill="black" stroke="black" points="140.46,-1186.37 151.05,-1186.34 142.75,-1179.76 140.46,-1186.37"/>
</g>
<!-- 48 -->
<g id="node49" class="node">
<title>48</title>
<polygon fill="none" stroke="black" points="644,-618 583,-618 583,-582 644,-582 644,-618"/>
<text xml:space="preserve" text-anchor="middle" x="613.5" y="-594.95" font-family="Times,serif" font-size="14.00">rskit&#45;sse</text>
</g>
<!-- 48&#45;&gt;2 -->
<g id="edge91" class="edge">
<title>48&#45;&gt;2</title>
<path fill="none" stroke="black" d="M644.41,-586.17C651.65,-582.31 659.19,-577.83 665.75,-573 684.08,-559.49 702.2,-541.41 715.8,-526.62"/>
<polygon fill="black" stroke="black" points="718.14,-529.25 722.24,-519.48 712.94,-524.56 718.14,-529.25"/>
</g>
<!-- 49 -->
<g id="node50" class="node">
<title>49</title>
<polygon fill="none" stroke="black" points="655.62,-564 571.38,-564 571.38,-528 655.62,-528 655.62,-564"/>
<text xml:space="preserve" text-anchor="middle" x="613.5" y="-540.95" font-family="Times,serif" font-size="14.00">rskit&#45;stateful</text>
</g>
<!-- 49&#45;&gt;2 -->
<g id="edge92" class="edge">
<title>49&#45;&gt;2</title>
<path fill="none" stroke="black" d="M655.87,-530.68C667,-526.56 679.13,-522.07 690.59,-517.83"/>
<polygon fill="black" stroke="black" points="691.74,-521.14 699.9,-514.38 689.31,-514.57 691.74,-521.14"/>
</g>
<!-- 50 -->
<g id="node51" class="node">
<title>50</title>
<polygon fill="none" stroke="black" points="665.75,-136 561.25,-136 561.25,-100 665.75,-100 665.75,-136"/>
<text xml:space="preserve" text-anchor="middle" x="613.5" y="-112.95" font-family="Times,serif" font-size="14.00">rskit&#45;vectorstore</text>
</g>
<!-- 50&#45;&gt;2 -->
<g id="edge93" class="edge">
<title>50&#45;&gt;2</title>
<path fill="none" stroke="black" d="M652.29,-136.47C657.42,-140.34 662.15,-144.84 665.75,-150 702.17,-202.2 727.09,-395.38 735.56,-470.17"/>
<polygon fill="black" stroke="black" points="732.07,-470.45 736.65,-480.01 739.02,-469.68 732.07,-470.45"/>
</g>
</g>
</svg>
