<?xml version="1.0" encoding="UTF-8" standalone="no"?>
<!DOCTYPE svg PUBLIC "-//W3C//DTD SVG 1.1//EN"
 "http://www.w3.org/Graphics/SVG/1.1/DTD/svg11.dtd">
<!-- Generated by graphviz version 14.1.5 (20260411.2331)
 -->
<!-- Pages: 1 -->
<svg width="356pt" height="314pt"
 viewBox="0.00 0.00 356.00 314.00" xmlns="http://www.w3.org/2000/svg" xmlns:xlink="http://www.w3.org/1999/xlink">
<g id="graph0" class="graph" transform="scale(1 1) rotate(0) translate(4 310)">
<polygon fill="white" stroke="none" points="-4,4 -4,-310 352,-310 352,4 -4,4"/>
<!-- 3 -->
<g id="node1" class="node">
<title>3</title>
<polygon fill="none" stroke="black" points="191.62,-306 137.62,-306 137.62,-270 191.62,-270 191.62,-306"/>
<text xml:space="preserve" text-anchor="middle" x="164.62" y="-282.95" font-family="Times,serif" font-size="14.00">rskit</text>
</g>
<!-- 14 -->
<g id="node3" class="node">
<title>14</title>
<polygon fill="none" stroke="black" points="348,-171 251.75,-171 251.75,-135 348,-135 348,-171"/>
<text xml:space="preserve" text-anchor="middle" x="299.88" y="-147.95" font-family="Times,serif" font-size="14.00">rskit&#45;resilience</text>
</g>
<!-- 3&#45;&gt;14 -->
<g id="edge1" class="edge">
<title>3&#45;&gt;14</title>
<path fill="none" stroke="black" d="M191.93,-276.48C200.03,-272.26 208.67,-267.02 215.75,-261 242.92,-237.91 266.91,-204.58 282.04,-181.07"/>
<polygon fill="black" stroke="black" points="284.99,-182.95 287.36,-172.62 279.07,-179.22 284.99,-182.95"/>
</g>
<!-- 4 -->
<g id="node2" class="node">
<title>4</title>
<polygon fill="none" stroke="black" points="201.5,-252 127.75,-252 127.75,-216 201.5,-216 201.5,-252"/>
<text xml:space="preserve" text-anchor="middle" x="164.62" y="-228.95" font-family="Times,serif" font-size="14.00">rskit&#45;agent</text>
</g>
<!-- 4&#45;&gt;14 -->
<g id="edge2" class="edge">
<title>4&#45;&gt;14</title>
<path fill="none" stroke="black" d="M200.62,-215.63C205.73,-212.81 210.9,-209.87 215.75,-207 231.27,-197.8 248.01,-187.08 262.38,-177.63"/>
<polygon fill="black" stroke="black" points="264.23,-180.6 270.64,-172.16 260.37,-174.77 264.23,-180.6"/>
</g>
<!-- 15 -->
<g id="node4" class="node">
<title>15</title>
<polygon fill="none" stroke="black" points="72.62,-198 4.88,-198 4.88,-162 72.62,-162 72.62,-198"/>
<text xml:space="preserve" text-anchor="middle" x="38.75" y="-174.95" font-family="Times,serif" font-size="14.00">rskit&#45;auth</text>
</g>
<!-- 18 -->
<g id="node5" class="node">
<title>18</title>
<polygon fill="none" stroke="black" points="212.38,-198 116.88,-198 116.88,-162 212.38,-162 212.38,-198"/>
<text xml:space="preserve" text-anchor="middle" x="164.62" y="-174.95" font-family="Times,serif" font-size="14.00">rskit&#45;httpclient</text>
</g>
<!-- 15&#45;&gt;18 -->
<g id="edge3" class="edge">
<title>15&#45;&gt;18</title>
<path fill="none" stroke="black" d="M72.95,-180C82.95,-180 94.23,-180 105.36,-180"/>
<polygon fill="black" stroke="black" points="105.32,-183.5 115.32,-180 105.32,-176.5 105.32,-183.5"/>
</g>
<!-- 18&#45;&gt;14 -->
<g id="edge4" class="edge">
<title>18&#45;&gt;14</title>
<path fill="none" stroke="black" d="M212.6,-170.48C221.55,-168.67 231.02,-166.75 240.28,-164.87"/>
<polygon fill="black" stroke="black" points="240.83,-168.33 249.94,-162.92 239.44,-161.47 240.83,-168.33"/>
</g>
<!-- 33 -->
<g id="node6" class="node">
<title>33</title>
<polygon fill="none" stroke="black" points="213.12,-144 116.12,-144 116.12,-108 213.12,-108 213.12,-144"/>
<text xml:space="preserve" text-anchor="middle" x="164.62" y="-120.95" font-family="Times,serif" font-size="14.00">rskit&#45;discovery</text>
</g>
<!-- 33&#45;&gt;14 -->
<g id="edge5" class="edge">
<title>33&#45;&gt;14</title>
<path fill="none" stroke="black" d="M213.35,-135.67C222.07,-137.44 231.26,-139.3 240.25,-141.12"/>
<polygon fill="black" stroke="black" points="239.5,-144.54 249.99,-143.1 240.89,-137.68 239.5,-144.54"/>
</g>
<!-- 39 -->
<g id="node7" class="node">
<title>39</title>
<polygon fill="none" stroke="black" points="198.88,-90 130.38,-90 130.38,-54 198.88,-54 198.88,-90"/>
<text xml:space="preserve" text-anchor="middle" x="164.62" y="-66.95" font-family="Times,serif" font-size="14.00">rskit&#45;grpc</text>
</g>
<!-- 39&#45;&gt;14 -->
<g id="edge6" class="edge">
<title>39&#45;&gt;14</title>
<path fill="none" stroke="black" d="M199.27,-89.63C204.82,-92.68 210.48,-95.87 215.75,-99 231.27,-108.2 248.01,-118.92 262.38,-128.37"/>
<polygon fill="black" stroke="black" points="260.37,-131.23 270.64,-133.84 264.23,-125.4 260.37,-131.23"/>
</g>
<!-- 46 -->
<g id="node8" class="node">
<title>46</title>
<polygon fill="none" stroke="black" points="215.75,-36 113.5,-36 113.5,0 215.75,0 215.75,-36"/>
<text xml:space="preserve" text-anchor="middle" x="164.62" y="-12.95" font-family="Times,serif" font-size="14.00">rskit&#45;messaging</text>
</g>
<!-- 46&#45;&gt;14 -->
<g id="edge7" class="edge">
<title>46&#45;&gt;14</title>
<path fill="none" stroke="black" d="M203.96,-36.42C208.11,-39.06 212.13,-41.93 215.75,-45 242.92,-68.09 266.91,-101.42 282.04,-124.93"/>
<polygon fill="black" stroke="black" points="279.07,-126.78 287.36,-133.38 284.99,-123.05 279.07,-126.78"/>
</g>
<!-- 47 -->
<g id="node9" class="node">
<title>47</title>
<polygon fill="none" stroke="black" points="77.5,-90 0,-90 0,-54 77.5,-54 77.5,-90"/>
<text xml:space="preserve" text-anchor="middle" x="38.75" y="-66.95" font-family="Times,serif" font-size="14.00">rskit&#45;server</text>
</g>
<!-- 47&#45;&gt;39 -->
<g id="edge8" class="edge">
<title>47&#45;&gt;39</title>
<path fill="none" stroke="black" stroke-dasharray="1,5" d="M77.93,-72C90.79,-72 105.27,-72 118.61,-72"/>
<polygon fill="black" stroke="black" points="118.47,-75.5 128.47,-72 118.47,-68.5 118.47,-75.5"/>
</g>
</g>
</svg>
